<svg id="Capa_1" enable-background="new 0 0 512 512" height="512" viewBox="0 0 512 512" width="512" xmlns="http://www.w3.org/2000/svg"><g><g><g><g><g><g><path d="m462.025 220.577v156.873c0 9.742-7.898 17.64-17.64 17.64h-79.59c-9.742 0-17.64-7.898-17.64-17.64v-156.87c0-6.272 2.943-12.182 7.948-15.961l3.666-2.768c13.664-10.317 22.228-26.015 23.507-43.089l1.838-24.541h40.96l1.839 24.546c1.279 17.071 9.84 32.767 23.5 43.084l3.665 2.768c5.006 3.779 7.947 9.687 7.947 15.958z" fill="#fca863"/><path d="m454.08 204.62-3.67-2.77c-13.66-10.32-22.22-26.01-23.5-43.08l-1.84-24.55h-40.95l-1.84 24.54c-.35 4.65-1.24 9.21-2.63 13.58l6.88 4.7c3.677 2.513 7.781 4.211 12.096 5.025 1.951.368 3.946.555 5.964.555 1.196 0 2.382-.078 3.557-.21 4.024 7.521 9.651 14.18 16.613 19.44l3.67 2.77c5 3.78 7.94 9.69 7.94 15.96v156.87c0 9.74-7.89 17.64-17.64 17.64h25.65c9.75 0 17.64-7.9 17.64-17.64v-156.87c0-6.27-2.94-12.18-7.94-15.96z" fill="#fc9744"/><g><g><g><circle cx="403.77" cy="259.142" fill="#f2eff2" r="31.78"/><path d="m435.547 259.141c0 17.551-14.227 31.778-31.778 31.778-7.133 0-13.714-2.346-19.023-6.325.427.019.855.029 1.282.029 17.551 0 31.778-14.227 31.778-31.778 0-10.419-5.015-19.659-12.755-25.453 16.962.674 30.496 14.625 30.496 31.749z" fill="#e1dde1"/></g><g><path d="m379.527 229.212 19.207 38.415c2.075 4.149 7.996 4.149 10.071 0l19.207-38.415c1.872-3.743-.85-8.148-5.035-8.148h-38.415c-4.184 0-6.906 4.404-5.035 8.148z" fill="#fee265"/><path d="m428.016 229.215-19.213 38.407c-2.07 4.15-7.997 4.15-10.067 0l-5.518-11.036 13.686-27.371c1.871-3.742-.855-8.149-5.034-8.149h21.113c4.178 0 6.903 4.407 5.033 8.149z" fill="#fdd330"/></g></g></g></g><path d="m424.075 149.417-13.846 9.462c-3.403 2.325-7.883 2.325-11.285-.001l-13.839-9.46c-2.726-1.864-4.357-4.953-4.357-8.255v-34.481h47.685v34.479c0 3.302-1.631 6.392-4.358 8.256z" fill="#e1dde1"/><path d="m428.433 106.681h-.003v-.001l-47.683.001v24.161h22.302c3.519 0 6.134 3.502 4.876 6.789-.039.103-.08.195-.122.274-.749 1.417-1.839 2.655-3.204 3.585l-13.85 9.47c-.61.41-1.25.75-1.91 1.02l10.1 6.9c3.4 2.32 7.89 2.32 11.29 0l13.84-9.46c2.73-1.87 4.36-4.96 4.36-8.26z" fill="#cbc5cb"/><g><path d="m424.308 114.084h-39.436c-5.523 0-10-4.477-10-10v-13.014c0-5.523 4.477-10 10-10h39.436c5.523 0 10 4.477 10 10v13.014c0 5.523-4.477 10-10 10z" fill="#f8c52d"/><path d="m434.31 91.07v13.01c0 5.53-4.48 10-10 10h-20.54c5.52 0 10-4.47 10-10v-13.01c0-5.52-4.48-10-10-10h20.54c5.52 0 10 4.48 10 10z" fill="#e7b729"/></g></g></g><g><g><g><path d="m313.435 220.577v156.873c0 9.742-7.898 17.64-17.64 17.64h-79.59c-9.742 0-17.64-7.898-17.64-17.64v-156.87c0-6.272 2.943-12.182 7.948-15.961l3.666-2.768c13.664-10.317 22.228-26.015 23.507-43.089l1.838-24.541h40.96l1.839 24.546c1.279 17.071 9.84 32.767 23.5 43.084l3.665 2.768c5.005 3.779 7.947 9.687 7.947 15.958z" fill="#8897dc"/><path d="m305.49 204.62-3.67-2.77c-13.66-10.32-22.22-26.01-23.5-43.08l-1.84-24.55h-40.95l-1.84 24.54c-.35 4.65-1.24 9.21-2.63 13.58l6.88 4.7c3.677 2.513 7.781 4.211 12.096 5.025 1.951.368 3.946.555 5.964.555 1.196 0 2.382-.078 3.557-.21 4.024 7.521 9.651 14.18 16.613 19.44l3.67 2.77c5 3.78 7.94 9.69 7.94 15.96v156.87c0 9.74-7.89 17.64-17.64 17.64h25.65c9.75 0 17.64-7.9 17.64-17.64v-156.87c0-6.27-2.94-12.18-7.94-15.96z" fill="#6d81d5"/></g><path d="m275.484 149.417-13.846 9.462c-3.403 2.325-7.883 2.325-11.285-.001l-13.839-9.46c-2.726-1.864-4.357-4.953-4.357-8.255v-34.481h47.685v34.479c.001 3.302-1.63 6.392-4.358 8.256z" fill="#e1dde1"/><path d="m279.843 106.681h-.003v-.001l-47.683.001v24.161h22.302c3.519 0 6.134 3.502 4.876 6.789-.039.103-.08.195-.122.274-.749 1.417-1.839 2.655-3.204 3.585l-13.85 9.47c-.61.41-1.25.75-1.91 1.02l10.1 6.9c3.4 2.32 7.89 2.32 11.29 0l13.84-9.46c2.73-1.87 4.36-4.96 4.36-8.26z" fill="#cbc5cb"/><g><path d="m275.718 114.084h-39.436c-5.523 0-10-4.477-10-10v-13.014c0-5.523 4.477-10 10-10h39.436c5.523 0 10 4.477 10 10v13.014c0 5.523-4.477 10-10 10z" fill="#f8c52d"/><path d="m285.72 91.07v13.01c0 5.53-4.48 10-10 10h-20.54c5.52 0 10-4.47 10-10v-13.01c0-5.52-4.48-10-10-10h20.54c5.52 0 10 4.48 10 10z" fill="#e7b729"/></g></g></g><g><g><g><path d="m166.489 220.577v156.873c0 9.742-7.898 17.64-17.64 17.64h-79.59c-9.742 0-17.64-7.898-17.64-17.64v-156.87c0-6.272 2.943-12.182 7.948-15.961l3.666-2.768c13.664-10.317 22.228-26.015 23.507-43.089l1.838-24.541h40.96l1.839 24.546c1.279 17.071 9.84 32.767 23.5 43.084l3.665 2.768c5.006 3.779 7.947 9.687 7.947 15.958z" fill="#64b9fc"/><path d="m158.544 204.62-3.67-2.77c-13.66-10.32-22.22-26.01-23.5-43.08l-1.84-24.55h-40.95l-1.84 24.54c-.35 4.65-1.24 9.21-2.63 13.58l6.88 4.7c3.677 2.513 7.781 4.211 12.096 5.025 1.951.368 3.946.555 5.964.555 1.196 0 2.382-.078 3.557-.21 4.024 7.521 9.651 14.18 16.613 19.44l3.67 2.77c5 3.78 7.94 9.69 7.94 15.96v156.87c0 9.74-7.89 17.64-17.64 17.64h25.65c9.75 0 17.64-7.9 17.64-17.64v-156.87c0-6.27-2.94-12.18-7.94-15.96z" fill="#31a7fb"/><g><g><g><circle cx="108.234" cy="259.142" fill="#f2eff2" r="31.78"/><path d="m140.011 259.141c0 17.551-14.227 31.778-31.778 31.778-7.133 0-13.714-2.346-19.023-6.325.427.019.855.029 1.282.029 17.551 0 31.778-14.227 31.778-31.778 0-10.419-5.015-19.659-12.755-25.453 16.962.674 30.496 14.625 30.496 31.749z" fill="#e1dde1"/></g><g><path d="m83.992 229.212 19.207 38.415c2.075 4.149 7.996 4.149 10.071 0l19.207-38.415c1.872-3.743-.85-8.148-5.035-8.148h-38.415c-4.185 0-6.907 4.404-5.035 8.148z" fill="#fee265"/><path d="m132.48 229.215-19.213 38.407c-2.07 4.15-7.997 4.15-10.067 0l-5.518-11.036 13.686-27.371c1.871-3.742-.855-8.149-5.034-8.149h21.113c4.178 0 6.904 4.407 5.033 8.149z" fill="#fdd330"/></g></g></g></g><path d="m128.539 149.417-13.846 9.462c-3.403 2.325-7.883 2.325-11.285-.001l-13.839-9.46c-2.726-1.864-4.357-4.953-4.357-8.255v-34.481h47.685v34.479c0 3.302-1.631 6.392-4.358 8.256z" fill="#e1dde1"/><path d="m132.897 106.681h-.003v-.001l-47.683.001v24.161h22.302c3.519 0 6.134 3.502 4.876 6.789-.039.103-.08.195-.122.274-.749 1.417-1.839 2.655-3.204 3.585l-13.85 9.47c-.61.41-1.25.75-1.91 1.02l10.1 6.9c3.4 2.32 7.89 2.32 11.29 0l13.84-9.46c2.73-1.87 4.36-4.96 4.36-8.26z" fill="#cbc5cb"/><g><path d="m128.772 114.084h-39.436c-5.523 0-10-4.477-10-10v-13.014c0-5.523 4.477-10 10-10h39.436c5.523 0 10 4.477 10 10v13.014c0 5.523-4.477 10-10 10z" fill="#f8c52d"/><path d="m138.774 91.07v13.01c0 5.53-4.48 10-10 10h-20.54c5.52 0 10-4.47 10-10v-13.01c0-5.52-4.48-10-10-10h20.54c5.52 0 10 4.48 10 10z" fill="#e7b729"/></g></g></g><g><path d="m504.5 266.37v144.56c0 11.046-8.954 20-20 20h-457c-11.046 0-20-8.954-20-20v-144.56c0-5.523 4.477-10 10-10h49.58c5.523 0 10 4.477 10 10v38.542c0 30.231 24.507 54.738 54.738 54.738h248.365c30.231 0 54.738-24.507 54.738-54.738v-38.542c0-5.523 4.477-10 10-10h49.58c5.522 0 9.999 4.477 9.999 10z" fill="#fb6672"/><path d="m504.5 266.37v144.56c0 11.05-8.95 20-20 20h-35.28c11.04 0 20-8.95 20-20v-144.56c0-5.52-4.48-10-10-10h35.28c5.52 0 10 4.48 10 10z" fill="#fb4a59"/><path d="m355.826 359.65h-64.806l-71.28 71.28h64.68c23.773-23.79 47.576-47.548 71.406-71.28z" fill="#fddd45"/><g><path d="m248.424 359.65h-109.805l-71.28 71.28h109.68c21.42-21.437 44.946-44.931 71.405-71.28z" fill="#fddd45"/></g></g></g><g><g><g><circle cx="256" cy="259.142" fill="#f2eff2" r="31.78"/><path d="m287.777 259.141c0 17.551-14.227 31.778-31.778 31.778-7.133 0-13.714-2.346-19.023-6.325.427.019.855.029 1.282.029 17.551 0 31.778-14.227 31.778-31.778 0-10.419-5.015-19.659-12.755-25.453 16.962.674 30.496 14.625 30.496 31.749z" fill="#e1dde1"/></g><g><path d="m231.757 229.212 19.207 38.415c2.075 4.149 7.996 4.149 10.071 0l19.207-38.415c1.872-3.743-.85-8.148-5.035-8.148h-38.415c-4.185 0-6.907 4.404-5.035 8.148z" fill="#fee265"/><path d="m280.245 229.215-19.213 38.407c-2.07 4.15-7.997 4.15-10.067 0l-5.518-11.036 13.686-27.371c1.871-3.742-.855-8.149-5.034-8.149h21.113c4.178 0 6.904 4.407 5.033 8.149z" fill="#fdd330"/></g></g></g></g><g><path d="m274.597 324.382c4.143 0 7.5-3.358 7.5-7.5s-3.357-7.5-7.5-7.5h-37.193c-4.142 0-7.5 3.358-7.5 7.5s3.358 7.5 7.5 7.5z"/><path d="m494.5 248.87h-24.975v-28.292c0-8.574-4.085-16.777-10.926-21.944l-3.665-2.768c-11.938-9.016-19.425-22.742-20.541-37.66l-.644-8.593c1.408-2.552 2.183-5.449 2.183-8.453v-24.031c3.595-3.207 5.876-7.859 5.876-13.045v-13.014c0-9.649-7.851-17.5-17.5-17.5h-39.437c-9.649 0-17.5 7.851-17.5 17.5v13.014c0 5.186 2.281 9.838 5.876 13.045v24.032c0 3.01.778 5.913 2.192 8.468l-.642 8.571c-1.117 14.921-8.606 28.649-20.546 37.664l-3.668 2.769c-6.843 5.167-10.929 13.372-10.929 21.947v131.57h-18.721v-131.573c0-8.573-4.084-16.777-10.926-21.945l-3.665-2.768c-11.937-9.015-19.424-22.742-20.541-37.659l-.643-8.594c1.408-2.552 2.183-5.449 2.183-8.453v-24.032c3.595-3.207 5.875-7.859 5.875-13.044v-13.012c0-9.649-7.851-17.5-17.5-17.5h-39.436c-9.649 0-17.5 7.851-17.5 17.5v13.014c0 5.186 2.28 9.838 5.875 13.045v24.033c0 3.01.778 5.913 2.192 8.469l-.642 8.57c-1.118 14.92-8.607 28.648-20.547 37.664l-3.667 2.769c-6.843 5.167-10.929 13.372-10.929 21.947v131.57h-17.076v-47.037c0-4.142-3.358-7.5-7.5-7.5s-7.5 3.358-7.5 7.5v47.037h-27.171c-19.191 0-35.734-11.51-43.12-27.984.565.136 1.153.216 1.76.216h37.193c4.142 0 7.5-3.358 7.5-7.5s-3.358-7.5-7.5-7.5h-37.19c-2.116 0-4.023.88-5.387 2.289-.318-2.208-.491-4.463-.491-6.758v-14.436c6.585 4.983 14.779 7.945 23.654 7.945 21.659 0 39.28-17.621 39.28-39.28 0-9.281-3.198-18.062-9.067-25.101l.738-1.476c2.05-4.1 1.835-8.875-.575-12.774s-6.585-6.227-11.169-6.227h-38.414c-4.583 0-8.759 2.328-11.168 6.227-2.41 3.899-2.625 8.675-.575 12.774l.739 1.477c-3.71 4.45-6.349 9.597-7.79 15.126-1.024-.187-2.075-.3-3.152-.3h-7.96v-28.291c0-3.898 1.857-7.627 4.967-9.976l3.667-2.769c14.788-11.166 24.253-27.949 26.241-46.307l5.18 3.541c3 2.05 6.438 3.076 9.876 3.076 3.437 0 6.875-1.025 9.873-3.074l5.199-3.552c1.984 18.361 11.448 35.147 26.236 46.317l3.665 2.768c3.109 2.349 4.966 6.078 4.966 9.975v49.141c0 4.142 3.358 7.5 7.5 7.5s7.5-3.358 7.5-7.5v-49.141c0-8.574-4.084-16.777-10.926-21.945l-3.665-2.768c-11.937-9.016-19.423-22.742-20.541-37.659l-.643-8.592c1.408-2.552 2.184-5.45 2.184-8.454v-24.031c3.595-3.207 5.875-7.859 5.875-13.045v-13.013c0-9.649-7.851-17.5-17.5-17.5h-39.439c-9.649 0-17.5 7.851-17.5 17.5v13.014c0 5.186 2.28 9.838 5.875 13.045v24.033c0 3.01.778 5.913 2.192 8.468l-.642 8.571c-1.118 14.92-8.606 28.648-20.547 37.664l-3.667 2.769c-6.843 5.167-10.929 13.372-10.929 21.947v28.291h-26.618c-9.649 0-17.5 7.851-17.5 17.5v144.56c0 15.164 12.336 27.5 27.5 27.5h86.444c4.142 0 7.5-3.358 7.5-7.5s-3.358-7.5-7.5-7.5h-28.499l56.28-56.28h88.545c-19.288 19.224-37.86 37.77-56.36 56.28h-24.572c-4.142 0-7.5 3.358-7.5 7.5s3.358 7.5 7.5 7.5h335.162c15.163 0 27.5-12.336 27.5-27.5v-144.562c0-9.65-7.851-17.5-17.5-17.5zm-384.04-96.184c-.856.586-1.963.585-2.821 0l-13.838-9.46c-.682-.466-1.089-1.238-1.089-2.064v-19.578h32.685v19.576c0 .827-.407 1.599-1.089 2.064zm-23.624-61.616c0-1.378 1.122-2.5 2.5-2.5h39.436c1.378 0 2.5 1.122 2.5 2.5v13.014c0 1.378-1.122 2.5-2.5 2.5h-39.436c-1.378 0-2.5-1.122-2.5-2.5zm302.501 52.155c-.682-.466-1.089-1.237-1.089-2.063v-19.578h32.685v19.576c0 .827-.407 1.598-1.09 2.064l-13.846 9.462c-.857.585-1.964.585-2.821 0zm-6.965-52.155c0-1.378 1.121-2.5 2.5-2.5h39.437c1.379 0 2.5 1.122 2.5 2.5v13.014c0 1.378-1.121 2.5-2.5 2.5h-39.437c-1.379 0-2.5-1.122-2.5-2.5zm-141.625 52.155c-.682-.466-1.089-1.238-1.089-2.064v-19.578h32.686v19.576c0 .827-.407 1.598-1.09 2.064l-13.847 9.462c-.857.586-1.963.585-2.821 0zm-6.965-52.155c0-1.378 1.122-2.5 2.5-2.5h39.436c1.379 0 2.5 1.122 2.5 2.5v13.014c0 1.378-1.121 2.5-2.5 2.5h-39.436c-1.378 0-2.5-1.122-2.5-2.5zm-27.717 129.509c0-3.898 1.857-7.627 4.967-9.976l3.667-2.769c14.789-11.167 24.254-27.949 26.242-46.307l5.179 3.541c3 2.05 6.438 3.076 9.876 3.076 3.437 0 6.875-1.025 9.873-3.074l5.198-3.552c1.985 18.361 11.448 35.147 26.236 46.317l3.665 2.767c3.109 2.349 4.966 6.078 4.966 9.975v131.573h-99.87v-131.571zm-81.649 7.985-16.182 32.363-16.181-32.363zm-27.925 42.417c2.239 4.477 6.739 7.258 11.745 7.257 5.005 0 9.504-2.781 11.743-7.258l10.639-21.278c1.243 2.947 1.898 6.142 1.898 9.439 0 13.388-10.892 24.28-24.28 24.28s-24.28-10.892-24.28-24.28c0-3.295.655-6.489 1.898-9.437zm-68.991 152.449c-6.893 0-12.5-5.607-12.5-12.5v-144.56c0-1.378 1.122-2.5 2.5-2.5h49.58c1.378 0 2.5 1.122 2.5 2.5v38.542c0 30.767 22.447 56.376 51.821 61.349l-57.169 57.169zm224.023-56.28h21.391l-56.279 56.28h-21.513c18.395-18.392 36.983-36.941 56.401-56.28zm-13.676 56.28 56.28-56.28h43.545c-19.257 19.193-38.153 38.063-56.359 56.28zm259.153-12.5c0 6.893-5.607 12.5-12.5 12.5h-181.976c18.293-18.29 37.197-37.153 56.4-56.28h21.258c8.005 0 15.823-1.514 23.237-4.5 3.842-1.548 5.702-5.917 4.154-9.759-1.548-3.841-5.914-5.701-9.76-4.155-5.624 2.266-11.557 3.415-17.632 3.415h-25.527v-131.57c0-3.898 1.857-7.627 4.967-9.976l3.668-2.769c14.788-11.166 24.253-27.948 26.242-46.307l5.179 3.541c3 2.05 6.438 3.076 9.876 3.076 3.437 0 6.875-1.025 9.873-3.074l5.198-3.552c1.984 18.36 11.447 35.147 26.235 46.316l3.666 2.768c3.109 2.349 4.966 6.078 4.966 9.975v28.292h-9.605c-1.075 0-2.124.112-3.146.299-1.441-5.53-4.079-10.677-7.79-15.126l.739-1.477c2.049-4.1 1.834-8.875-.576-12.774s-6.585-6.227-11.169-6.227h-38.415c-4.584 0-8.76 2.328-11.169 6.228-2.41 3.899-2.624 8.674-.574 12.774l.739 1.478c-5.868 7.039-9.068 15.822-9.068 25.099 0 21.659 17.621 39.28 39.28 39.28 8.873 0 17.066-2.961 23.649-7.941v14.432c0 1.866-.129 3.722-.347 5.563-1.134-.69-2.461-1.094-3.886-1.094h-37.192c-4.143 0-7.5 3.358-7.5 7.5s3.357 7.5 7.5 7.5h37.192.006c-.689 1.52-1.437 3.016-2.288 4.461-2.103 3.569-.914 8.167 2.655 10.269 3.568 2.102 8.165.915 10.269-2.655 5.62-9.54 8.591-20.447 8.591-31.544v-38.546c0-1.378 1.121-2.5 2.5-2.5h49.58c1.379 0 2.5 1.122 2.5 2.5v144.56zm-110.765-185.072c0-.001 0-.001 0 0 .001.001.002.003.003.004zm17.536 35.069-16.182-32.363h32.363zm-22.382-11.222 10.638 21.276c2.239 4.477 6.739 7.258 11.745 7.257 5.005 0 9.505-2.782 11.742-7.258l10.639-21.277c1.243 2.947 1.898 6.141 1.898 9.438 0 13.388-10.892 24.28-24.28 24.28s-24.28-10.892-24.28-24.28c-.001-3.294.654-6.488 1.898-9.436z"/><path d="m449.686 370.554h-12.347c-4.143 0-7.5 3.358-7.5 7.5s3.357 7.5 7.5 7.5h12.347c4.143 0 7.5-3.358 7.5-7.5s-3.358-7.5-7.5-7.5z"/><path d="m449.686 392.783h-45.688c-4.143 0-7.5 3.358-7.5 7.5s3.357 7.5 7.5 7.5h45.688c4.143 0 7.5-3.358 7.5-7.5s-3.358-7.5-7.5-7.5z"/><path d="m295.28 259.142c0-9.281-3.197-18.062-9.066-25.1l.738-1.476c2.049-4.1 1.834-8.875-.576-12.774s-6.585-6.227-11.169-6.227h-38.415c-4.584 0-8.759 2.328-11.169 6.228-2.409 3.899-2.624 8.674-.574 12.774l.739 1.477c-5.869 7.039-9.068 15.822-9.068 25.099 0 21.659 17.621 39.28 39.28 39.28s39.28-17.622 39.28-39.281zm-23.098-30.578-16.182 32.363-16.181-32.363zm-33.717-2.707c0 .002.001.004.002.005zm-6.745 33.285c0-3.296.655-6.49 1.899-9.438l10.638 21.276c2.238 4.477 6.739 7.258 11.744 7.258s9.505-2.781 11.743-7.258l10.639-21.277c1.243 2.947 1.898 6.142 1.898 9.438 0 13.388-10.892 24.28-24.28 24.28-13.389.001-24.281-10.891-24.281-24.279z"/></g></g></svg>